# xmcd
#
# Track frame offsets: 
#        150
#        19488
#        37690
#        53355
#        69050
#        84655
#        109513
#        130095
#        149838
#        170413
#        187275
#        206100
#        228363
#        246688
#        268213
#        289288
#
# Disc length: 4056 seconds
#
# Revision: 1
# Processed by: cddbd v1.5.2PL0 Copyright (c) Steve Scherf et al.
# Submitted via: ExactAudioCopy v0.99pb3
#
DISCID=f20fd610
DTITLE=Dionne Warwick - Love songs
DYEAR=2002
DGENRE=R&B
TTITLE0=Heartbreaker
TTITLE1=After you
TTITLE2=I'll never love this way again
TTITLE3=How many times can we say goodbye (with Luther Vandross)
TTITLE4=No night so long
TTITLE5=Will you still love me tomorrow
TTITLE6=Love power (with Jeffrey Osborne)
TTITLE7=Reservations for two (with Kashif)
TTITLE8=Run to me (with Barry Manilow)
TTITLE9=You are my love
TTITLE10=Sunny weather lover
TTITLE11=Love will find a way (with Withney Houston)
TTITLE12=Friends in love (with Johnny Mathis)
TTITLE13=Never gonna let you go
TTITLE14=Love at second sight
TTITLE15=What is this thing called love (medley)
EXTD=
EXTT0=
EXTT1=
EXTT2=
EXTT3=
EXTT4=
EXTT5=
EXTT6=
EXTT7=
EXTT8=
EXTT9=
EXTT10=
EXTT11=
EXTT12=
EXTT13=
EXTT14=
EXTT15=
PLAYORDER=
